<svg class="main" xmlns="http://www.w3.org/2000/svg" width="181.98" height="32.4" viewBox="0 0 181.98 32.4">
    <path id="Path_2649" data-name="Path 2649" d="M29,46,14.192,29.395l13.59-14.9h-6.7L8.7,28.225V14.5H3.437V46H8.7V30.61L22.067,46Zm1.755,0h5.265V24.85L45.242,46h3.87l9.405-21.15V46h5.265V14.5h-5.4l-10.8,23.76L37.1,14.5H30.752Zm38.385,0H74.4V24.85L83.628,46H87.5L96.9,24.85V46h5.265V14.5h-5.4l-10.8,23.76L75.482,14.5H69.137Zm62.505,0-8.6-13.23c3.69-1.26,5.985-4.545,5.985-8.91a9.509,9.509,0,0,0-9.675-9.36H107.522V46h5.265V33.355h4.635L125.253,46ZM112.788,19.585h6.39a4.286,4.286,0,0,1,4.545,4.275,4.376,4.376,0,0,1-4.545,4.455h-6.39ZM147.8,46.45c7.425,0,13.455-4.725,14.715-11.565h-5.85A8.859,8.859,0,0,1,147.8,41.32c-5.9,0-10.4-4.815-10.4-11.115,0-6.255,4.5-11.025,10.4-11.025,4.23,0,7.785,2.475,8.82,6.03h5.805c-.99-6.48-7.38-11.16-14.625-11.16-9,0-15.84,6.975-15.84,16.155C131.958,39.43,138.8,46.45,147.8,46.45ZM166.833,14.5V46h18.585V40.96H172.1V32h11.88v-5.04H172.1V19.54h13.32V14.5Z" transform="translate(-3.437 -14.05)" fill="#333"/>
</svg>